<?xml version="1.0" encoding="UTF-8" standalone="no"?>
<svg
   xmlns:dc="http://purl.org/dc/elements/1.1/"
   xmlns:cc="http://creativecommons.org/ns#"
   xmlns:rdf="http://www.w3.org/1999/02/22-rdf-syntax-ns#"
   xmlns:svg="http://www.w3.org/2000/svg"
   xmlns="http://www.w3.org/2000/svg"
   xmlns:sodipodi="http://sodipodi.sourceforge.net/DTD/sodipodi-0.dtd"
   xmlns:inkscape="http://www.inkscape.org/namespaces/inkscape"
   width="126"
   height="96.612999"
   viewBox="0 0 33.337499 25.56219"
   version="1.1"
   id="svg8"
   inkscape:version="1.0.1 (3bc2e813f5, 2020-09-07)"
   sodipodi:docname="pushr4.svg">
  <defs
     id="defs2">
    <clipPath
       id="clip0-38">
      <rect
         x="494"
         y="509"
         width="133"
         height="151"
         id="rect476" />
    </clipPath>
  </defs>
  <sodipodi:namedview
     id="base"
     pagecolor="#ffffff"
     bordercolor="#666666"
     borderopacity="1.0"
     inkscape:pageopacity="0.0"
     inkscape:pageshadow="2"
     inkscape:zoom="0.49497475"
     inkscape:cx="226.14773"
     inkscape:cy="-27.592889"
     inkscape:document-units="mm"
     inkscape:current-layer="layer1"
     inkscape:document-rotation="0"
     showgrid="false"
     inkscape:window-width="1254"
     inkscape:window-height="728"
     inkscape:window-x="26"
     inkscape:window-y="0"
     inkscape:window-maximized="0"
     units="px" />
  <metadata
     id="metadata5">
    <rdf:RDF>
      <cc:Work
         rdf:about="">
        <dc:format>image/svg+xml</dc:format>
        <dc:type
           rdf:resource="http://purl.org/dc/dcmitype/StillImage" />
        <dc:title></dc:title>
      </cc:Work>
    </rdf:RDF>
  </metadata>
  <g
     inkscape:label="Ebene 1"
     inkscape:groupmode="layer"
     id="layer1">
    <g
       id="g1424"
       transform="translate(-59.370773,-203.68581)">
      <g
         clip-path="url(#clip0-38)"
         transform="matrix(0.26458333,0,0,0.26458333,-72.127142,54.623086)"
         id="g492">
        <path
           d="m 497,580 c 0,-8.836 7.164,-16 16,-16 h 94 c 8.836,0 16,7.164 16,16 v 64 c 0,8.836 -7.164,16 -16,16 h -94 c -8.836,0 -16,-7.164 -16,-16 z"
           fill="#f2f2f2"
           fill-rule="evenodd"
           id="path482" />
        <path
           d="m 579,634.5 c 0,-10.77 8.73,-19.5 19.5,-19.5 10.77,0 19.5,8.73 19.5,19.5 0,10.77 -8.73,19.5 -19.5,19.5 -10.77,0 -19.5,-8.73 -19.5,-19.5 z"
           fill="#263238"
           fill-rule="evenodd"
           id="path484" />
        <path
           d="m 555,634.5 c 0,-10.77 8.73,-19.5 19.5,-19.5 10.77,0 19.5,8.73 19.5,19.5 0,10.77 -8.73,19.5 -19.5,19.5 -10.77,0 -19.5,-8.73 -19.5,-19.5 z"
           fill="#4f5b62"
           fill-rule="evenodd"
           id="path486" />
        <path
           d="m 532,634.5 c 0,-10.77 8.73,-19.5 19.5,-19.5 10.77,0 19.5,8.73 19.5,19.5 0,10.77 -8.73,19.5 -19.5,19.5 -10.77,0 -19.5,-8.73 -19.5,-19.5 z"
           fill="#ff7961"
           fill-rule="evenodd"
           id="path488" />
      </g>
      <path
         id="path482-2-3"
         style="fill:#969696;fill-opacity:0.7;stroke-width:0.234692"
         d="m 63.506954,203.68581 c -2.030196,0 -3.724799,1.43005 -4.136181,3.33727 0.215603,0.80484 0.672666,1.61526 1.362189,2.30479 l 12.16825,12.16824 c 1.67997,1.67997 4.079463,2.0044 5.359363,0.72451 l 13.616224,-13.61573 c 0.34947,-0.34946 0.57508,-0.78449 0.6904,-1.26349 -0.28253,-2.06375 -2.04812,-3.65559 -4.18941,-3.65559 z" />
    </g>
  </g>
</svg>
