<svg width="132" height="103" xmlns="http://www.w3.org/2000/svg" xmlns:xlink="http://www.w3.org/1999/xlink" overflow="hidden"><defs><clipPath id="clip0"><rect x="331" y="606" width="132" height="103"/></clipPath><linearGradient x1="347.661" y1="594.154" x2="445.339" y2="720.846" gradientUnits="userSpaceOnUse" spreadMethod="reflect" id="fill1"><stop offset="0" stop-color="#FFFFFF"/><stop offset="0.43" stop-color="#FFFFFF"/><stop offset="0.84" stop-color="#FFFFFF" stop-opacity="0"/><stop offset="1" stop-color="#FFFFFF" stop-opacity="0"/></linearGradient></defs><g clip-path="url(#clip0)" transform="translate(-331 -606)"><path d="M335 627C335 618.164 342.164 611 351 611L445 611C453.836 611 461 618.164 461 627L461 691C461 699.836 453.836 707 445 707L351 707C342.164 707 335 699.836 335 691Z" stroke="#767171" stroke-width="2" stroke-miterlimit="8" fill="#FFFFFF" fill-rule="evenodd"/><rect x="331" y="607" width="131" height="101" fill="url(#fill1)"/><path d="M417 678.5C417 667.73 425.73 659 436.5 659 447.27 659 456 667.73 456 678.5 456 689.27 447.27 698 436.5 698 425.73 698 417 689.27 417 678.5Z" fill="#263238" fill-rule="evenodd"/><path d="M393 678.5C393 667.73 401.73 659 412.5 659 423.27 659 432 667.73 432 678.5 432 689.27 423.27 698 412.5 698 401.73 698 393 689.27 393 678.5Z" fill="#4F5B62" fill-rule="evenodd"/><path d="M369 678.5C369 667.73 377.73 659 388.5 659 399.27 659 408 667.73 408 678.5 408 689.27 399.27 698 388.5 698 377.73 698 369 689.27 369 678.5Z" fill="#FF7961" fill-rule="evenodd"/></g></svg>