<svg width="87" height="40" xmlns="http://www.w3.org/2000/svg" xmlns:xlink="http://www.w3.org/1999/xlink" overflow="hidden"><defs><clipPath id="clip0"><rect x="369" y="659" width="87" height="40"/></clipPath></defs><g clip-path="url(#clip0)" transform="translate(-369 -659)"><path d="M417 678.5C417 667.73 425.73 659 436.5 659 447.27 659 456 667.73 456 678.5 456 689.27 447.27 698 436.5 698 425.73 698 417 689.27 417 678.5Z" fill="#263238" fill-rule="evenodd"/><path d="M393 678.5C393 667.73 401.73 659 412.5 659 423.27 659 432 667.73 432 678.5 432 689.27 423.27 698 412.5 698 401.73 698 393 689.27 393 678.5Z" fill="#4F5B62" fill-rule="evenodd"/><path d="M369 678.5C369 667.73 377.73 659 388.5 659 399.27 659 408 667.73 408 678.5 408 689.27 399.27 698 388.5 698 377.73 698 369 689.27 369 678.5Z" fill="#FF7961" fill-rule="evenodd"/></g></svg>