<svg width="202" height="146" xmlns="http://www.w3.org/2000/svg" xmlns:xlink="http://www.w3.org/1999/xlink" overflow="hidden"><defs><filter id="fx0" x="-10%" y="-10%" width="120%" height="120%" filterUnits="userSpaceOnUse" primitiveUnits="userSpaceOnUse"><feComponentTransfer color-interpolation-filters="sRGB"><feFuncR type="discrete" tableValues="0 0"/><feFuncG type="discrete" tableValues="0 0"/><feFuncB type="discrete" tableValues="0 0"/><feFuncA type="linear" slope="0.4" intercept="0"/></feComponentTransfer><feGaussianBlur stdDeviation="2.22222 2.22222"/></filter><filter id="fx1" x="-10%" y="-10%" width="120%" height="120%" filterUnits="userSpaceOnUse" primitiveUnits="userSpaceOnUse"><feComponentTransfer color-interpolation-filters="sRGB"><feFuncR type="discrete" tableValues="0 0"/><feFuncG type="discrete" tableValues="0 0"/><feFuncB type="discrete" tableValues="0 0"/><feFuncA type="linear" slope="0.4" intercept="0"/></feComponentTransfer><feGaussianBlur stdDeviation="2.22222 2.22222"/></filter><filter id="fx2" x="-10%" y="-10%" width="120%" height="120%" filterUnits="userSpaceOnUse" primitiveUnits="userSpaceOnUse"><feComponentTransfer color-interpolation-filters="sRGB"><feFuncR type="discrete" tableValues="0 0"/><feFuncG type="discrete" tableValues="0 0"/><feFuncB type="discrete" tableValues="0 0"/><feFuncA type="linear" slope="0.4" intercept="0"/></feComponentTransfer><feGaussianBlur stdDeviation="2.22222 2.22222"/></filter><clipPath id="clip3"><rect x="645" y="359" width="202" height="146"/></clipPath><clipPath id="clip4"><rect x="-4" y="-4" width="62" height="62"/></clipPath><clipPath id="clip5"><rect x="0" y="0" width="55" height="55"/></clipPath><clipPath id="clip6"><rect x="-4" y="-4" width="62" height="62"/></clipPath><clipPath id="clip7"><rect x="0" y="0" width="55" height="55"/></clipPath><clipPath id="clip8"><rect x="-4" y="-4" width="62" height="62"/></clipPath><clipPath id="clip9"><rect x="0" y="0" width="55" height="55"/></clipPath></defs><g clip-path="url(#clip3)" transform="translate(-645 -359)"><path d="M645 432C645 392.236 689.995 360 745.5 360 801.005 360 846 392.236 846 432 846 471.764 801.005 504 745.5 504 689.995 504 645 471.764 645 432Z" fill-rule="evenodd"/><g clip-path="url(#clip4)" filter="url(#fx0)" transform="translate(675 405)"><g clip-path="url(#clip5)"><path d="M7.60999 27.5C7.60999 16.515 16.515 7.60999 27.5 7.60999 38.4849 7.60999 47.39 16.515 47.39 27.5 47.39 38.4849 38.4849 47.39 27.5 47.39 16.515 47.39 7.60999 38.4849 7.60999 27.5Z" fill="#FF7961" fill-rule="evenodd"/></g></g><path d="M683 432.5C683 421.73 691.73 413 702.5 413 713.27 413 722 421.73 722 432.5 722 443.27 713.27 452 702.5 452 691.73 452 683 443.27 683 432.5Z" fill="#FF7961" fill-rule="evenodd"/><g clip-path="url(#clip6)" filter="url(#fx1)" transform="translate(718 405)"><g clip-path="url(#clip7)"><path d="M7.60999 27.5C7.60999 16.515 16.515 7.60999 27.5 7.60999 38.4849 7.60999 47.39 16.515 47.39 27.5 47.39 38.4849 38.4849 47.39 27.5 47.39 16.515 47.39 7.60999 38.4849 7.60999 27.5Z" fill="#4F5B62" fill-rule="evenodd"/></g></g><path d="M726 432.5C726 421.73 734.73 413 745.5 413 756.27 413 765 421.73 765 432.5 765 443.27 756.27 452 745.5 452 734.73 452 726 443.27 726 432.5Z" fill="#4F5B62" fill-rule="evenodd"/><g clip-path="url(#clip8)" filter="url(#fx2)" transform="translate(762 405)"><g clip-path="url(#clip9)"><path d="M7.60999 27.5C7.60999 16.515 16.515 7.60999 27.5 7.60999 38.4849 7.60999 47.39 16.515 47.39 27.5 47.39 38.4849 38.4849 47.39 27.5 47.39 16.515 47.39 7.60999 38.4849 7.60999 27.5Z" fill="#263238" fill-rule="evenodd"/></g></g><path d="M770 432.5C770 421.73 778.73 413 789.5 413 800.27 413 809 421.73 809 432.5 809 443.27 800.27 452 789.5 452 778.73 452 770 443.27 770 432.5Z" fill="#263238" fill-rule="evenodd"/></g></svg>