<svg width="127" height="40" xmlns="http://www.w3.org/2000/svg" xmlns:xlink="http://www.w3.org/1999/xlink" overflow="hidden"><defs><clipPath id="clip0"><rect x="888" y="169" width="127" height="40"/></clipPath></defs><g clip-path="url(#clip0)" transform="translate(-888 -169)"><path d="M888 189.5C888 178.73 896.73 170 907.5 170 918.27 170 927 178.73 927 189.5 927 200.27 918.27 209 907.5 209 896.73 209 888 200.27 888 189.5Z" fill="#FF7961" fill-rule="evenodd"/><path d="M931 189.5C931 178.73 939.73 170 950.5 170 961.27 170 970 178.73 970 189.5 970 200.27 961.27 209 950.5 209 939.73 209 931 200.27 931 189.5Z" fill="#4F5B62" fill-rule="evenodd"/><path d="M975 189.5C975 178.73 983.73 170 994.5 170 1005.27 170 1014 178.73 1014 189.5 1014 200.27 1005.27 209 994.5 209 983.73 209 975 200.27 975 189.5Z" fill="#263238" fill-rule="evenodd"/></g></svg>